<?xml version="1.0"?>
<svg xmlns="http://www.w3.org/2000/svg" height="512px" viewBox="-61 0 512 512" width="512px" class=""><g><path d="m240 105c0-24.8125-20.1875-45-45-45s-45 20.1875-45 45 20.1875 45 45 45 45-20.1875 45-45zm-45 15c-8.269531 0-15-6.730469-15-15s6.730469-15 15-15 15 6.730469 15 15-6.730469 15-15 15zm0 0" data-original="#000000" class="active-path" data-old_color="#000000" fill="#3F3D56"/><path d="m375 362h-15v-45c0-8.285156-6.714844-15-15-15h-135v-32.839844c67.484375-7.492187 120-64.878906 120-134.160156 0-74.4375-60.5625-135-135-135s-135 60.5625-135 135c0 69.265625 52.503906 126.667969 120 134.160156v32.839844h-135c-8.285156 0-15 6.714844-15 15v45h-15c-8.285156 0-15 6.714844-15 15v60c0 8.285156 6.714844 15 15 15h15v45c0 8.285156 6.714844 15 15 15s15-6.714844 15-15v-45h15c8.285156 0 15-6.714844 15-15v-60c0-8.285156-6.714844-15-15-15h-15v-30h120v30h-15c-8.285156 0-15 6.714844-15 15v60c0 8.285156 6.714844 15 15 15h15v45c0 8.285156 6.714844 15 15 15s15-6.714844 15-15v-45h15c8.285156 0 15-6.714844 15-15v-60c0-8.285156-6.714844-15-15-15h-15v-30h120v30h-15c-8.285156 0-15 6.714844-15 15v60c0 8.285156 6.714844 15 15 15h15v45c0 8.285156 6.714844 15 15 15s15-6.714844 15-15v-45h15c8.285156 0 15-6.714844 15-15v-60c0-8.285156-6.714844-15-15-15zm-225-132.144531v-4.855469c0-24.8125 20.1875-45 45-45s45 20.1875 45 45v4.855469c-13.640625 6.496093-28.894531 10.140625-44.984375 10.144531-.003906 0-.011719 0-.015625 0s-.011719 0-.015625 0c-16.089844-.003906-31.34375-3.648438-44.984375-10.144531zm-60-94.855469c0-57.898438 47.101562-105 105-105s105 47.101562 105 105c0 29.316406-12.082031 55.859375-31.523438 74.929688-6.996093-34.160157-37.28125-59.929688-73.476562-59.929688s-66.480469 25.769531-73.476562 59.929688c-19.441407-19.070313-31.523438-45.613282-31.523438-74.929688zm-30 287h-30v-30h30zm150 0h-30v-30h30zm150 0h-30v-30h30zm0 0" data-original="#000000" class="active-path" data-old_color="#000000" fill="#3F3D56"/></g> </svg>
